<?xml version="1.0" standalone="no"?>
<!DOCTYPE svg PUBLIC "-//W3C//DTD SVG 20010904//EN"
 "http://www.w3.org/TR/2001/REC-SVG-20010904/DTD/svg10.dtd">
<svg version="1.0" xmlns="http://www.w3.org/2000/svg"
 width="1024.000000pt" height="1024.000000pt" viewBox="0 0 1024.000000 1024.000000"
 preserveAspectRatio="xMidYMid meet">

<g transform="translate(0.000000,1024.000000) scale(0.100000,-0.100000)"
fill="#000000" stroke="none">
<path d="M3067 8330c-91-23-160-81-201-169-19-42-21-67-24-298l-4-253-192 0c-209 0-269-9-364-57-71-36-154-115-196-186-65-111-66-119-66-880 0-760-1-747 66-825 70-82 178-112 288-80 55 16 138 99 154 154 9 31 12 207 12 678l0 636 150 0 150 0 0-2069 0-2069-147 2-148 1-5 620-5 620-28 48c-31 52-88 99-144 118-46 15-159 7-199-14-43-22-90-74-117-126l-22-46-3-665c-2-469 0-683 8-725 34-176 191-337 370-379 53-13 148-16 523-16 359 0 457-3 457-12 0-10 2-10 8-1 6 10 164 13 682 15 665 3 676 3 721 24 230 106 229 415 0 517-44 19-68 20-706 21l-660 1-2 1265c-1 696 0 1284 4 1307l6 42 161-110c88-61 193-133 231-160 39-28 116-82 172-120 57-38 157-108 224-155 67-47 123-84 124-82 6 6 95 238 156 406 33 90 64 172 69 182 12 23-38 64-310 250-107 74-224 154-260 179-36 25-171 117-300 204-129 88-245 169-258 181l-23 20 2 363 1 363 647 0c551 0 655 2 699 15 164 49 244 233 169 388-30 60-65 95-131 130-41 22-42 22-707 25l-667 3-5 26c-3 15-6 126-6 247-1 125-7 237-13 258-39 131-204 222-341 188z"/>
<path d="M6575 8331 c-82 -23 -143 -68 -175 -132 -39 -75 -42 -189 -8 -253 26
-48 72 -95 120 -121 137 -74 316 -18 383 120 29 60 32 161 7 217 -27 61 -88
127 -139 150 -48 21 -144 31 -188 19z"/>
<path d="M6103 7594 c-61 -22 -126 -84 -153 -145 -18 -43 -21 -66 -18 -133 3
-72 7 -88 36 -133 59 -92 149 -133 292 -133 l90 0 0 -1296 0 -1296 -27 17
c-16 10 -149 101 -296 202 -148 100 -272 183 -276 183 -5 0 -23 -37 -40 -81
-30 -75 -170 -466 -185 -515 -5 -17 1 -28 31 -51 34 -27 524 -370 715 -502
l77 -53 3 -847 3 -846 24 -49 c90 -182 314 -228 464 -97 20 18 49 58 64 89 27
55 28 62 31 250 l4 192 407 0 c374 0 414 2 485 20 145 37 258 124 319 246 59
117 59 115 55 849 l-3 670 -25 48 c-46 91 -134 146 -231 147 -105 0 -184 -46
-232 -135 -22 -39 -22 -48 -27 -660 l-5 -620 -174 -3 c-96 -1 -178 1 -182 5
-5 5 -91 6 -193 3 l-186 -5 -1 140 c-5 579 -6 3865 -2 3922 l6 73 368 0 368 0
1 -641 c0 -547 3 -646 16 -677 41 -98 130 -162 228 -162 32 0 76 5 98 12 50
15 122 78 151 132 l22 41 3 710 c2 520 0 725 -9 765 -33 153 -159 293 -318
354 -55 21 -65 21 -896 23 -723 1 -846 0 -882 -13z"/>


<path d="M5411 6575 c-71 -20 -113 -47 -157 -101 -33 -39 -80 -174 -467 -1331
-421 -1261 -430 -1290 -431 -1368 0 -65 4 -88 23 -125 39 -75 77 -115 142
-150 147 -78 329 -36 422 96 27 39 70 163 713 2084 164 489 169 508 169 585
-1 67 -5 90 -28 137 -32 65 -100 131 -162 159 -61 27 -157 33 -224 14z"/>

</g>
</svg>
